<?xml version="1.0" encoding="UTF-8" standalone="no"?>
<!-- Created with Inkscape (http://www.inkscape.org/) -->

<svg
   version="1.1"
   id="svg1"
   width="150"
   height="150"
   viewBox="0 0 150 150"
   sodipodi:docname="browsedocs.svg"
   inkscape:version="1.3.1 (6036e22fae, 2023-11-19, custom)"
   xml:space="preserve"
   xmlns:inkscape="http://www.inkscape.org/namespaces/inkscape"
   xmlns:sodipodi="http://sodipodi.sourceforge.net/DTD/sodipodi-0.dtd"
   xmlns="http://www.w3.org/2000/svg"
   xmlns:svg="http://www.w3.org/2000/svg"><defs
     id="defs1" /><sodipodi:namedview
     id="namedview1"
     pagecolor="#505050"
     bordercolor="#eeeeee"
     borderopacity="1"
     inkscape:showpageshadow="0"
     inkscape:pageopacity="0"
     inkscape:pagecheckerboard="0"
     inkscape:deskcolor="#585858"
     inkscape:zoom="2.0826613"
     inkscape:cx="0.24007744"
     inkscape:cy="95.7909"
     inkscape:window-width="1920"
     inkscape:window-height="946"
     inkscape:window-x="0"
     inkscape:window-y="27"
     inkscape:window-maximized="1"
     inkscape:current-layer="g1"
     showgrid="false" /><g
     inkscape:groupmode="layer"
     inkscape:label="Image"
     id="g1"><rect
       style="fill:#1a1d54;fill-opacity:1;fill-rule:evenodd;stroke:#ffffff;stroke-width:0"
       id="rect2"
       width="150"
       height="150"
       x="0"
       y="0"
       ry="75" /><path
       id="path1029"
       style="fill:#ffffff;fill-opacity:1;stroke-width:0.775773"
       d="m 30.122403,106.39071 c 1.957579,-1.81957 5.984652,-5.47851 7.782375,-4.64584 -2.284668,1.49333 -5.21396,5.26677 -7.782375,4.64584 z m 3.117669,0.12396 c 1.543803,-1.45031 7.655971,-6.655906 7.325024,-4.14903 -2.130198,1.389 -4.846315,4.58943 -7.325024,4.14903 z m 3.595748,-0.12396 c 1.862185,-1.73197 6.166624,-5.65364 7.78167,-4.59715 -2.272882,1.4965 -5.223201,5.20688 -7.78167,4.59715 z m 3.117677,0.16115 c 1.58074,-1.43048 7.609051,-6.707169 7.333368,-4.19203 -2.147134,1.42138 -4.815997,4.52266 -7.333368,4.19203 z m 3.595747,-0.16115 c 1.862186,-1.73197 6.166624,-5.65364 7.78167,-4.59715 -2.272882,1.4965 -5.223201,5.20688 -7.78167,4.59715 z m 3.117678,0.13102 c 2.023803,-1.52949 6.307561,-5.89439 7.794479,-4.50632 -2.23861,1.57562 -4.894239,4.92215 -7.794479,4.50632 z m 3.595747,-0.13102 c 1.862184,-1.73197 6.166627,-5.65364 7.781669,-4.59715 -2.272882,1.4965 -5.223204,5.20688 -7.781669,4.59715 z m 3.11767,0.17596 c 2.018588,-1.49792 6.231328,-5.98634 7.686628,-4.55283 -2.196837,1.62161 -5.032383,4.75418 -7.686628,4.55283 z m 3.593536,-0.17596 c 2.228956,-1.84837 5.705513,-5.41452 8.056644,-5.12313 -2.26808,1.71567 -5.235968,5.56857 -8.056644,5.12313 z m -28.899157,-0.5961 c 0.518827,-1.54037 6.301016,-6.472821 6.702747,-4.45651 -1.919341,1.33392 -4.525111,5.17135 -6.702747,4.45651 z m 32.466605,0.36046 c 2.435626,-1.95942 6.476506,-5.95235 8.773216,-5.5587 -2.455585,2.09796 -5.602581,5.29555 -8.773216,5.5587 z M 27.86934,103.34959 c 0.930925,-2.32668 9.720366,-7.697247 4.82511,-2.74324 -1.103828,0.41183 -4.229447,4.58092 -4.82511,2.74324 z m 0,-2.34859 c 1.003875,-2.931898 10.296755,-8.034562 4.478069,-2.587207 -1.206069,0.390904 -3.786012,4.043247 -4.478069,2.587207 z m 8.126356,-1.656031 c -0.858252,-3.507076 -0.552724,-7.177492 -0.741593,-10.763736 -1.601775,1.694738 -5.912836,3.595212 -2.137866,0.01529 1.832928,-1.465591 4.772831,-4.2148 5.090948,-1.812587 1.651456,-4.566579 0.459024,-10.009214 0.850568,-14.906047 0.0013,-6.770961 3.1e-4,-13.541923 6.18e-4,-20.312885 -1.279622,-0.956569 -4.005365,-0.989763 -3.393829,-3.153875 0.06658,-3.297053 -0.626875,-6.792781 0.478065,-9.928031 4.740938,-1.140946 9.847159,-0.292534 14.730578,-0.506285 6.354488,0.152193 12.81246,-0.08776 19.104554,0.301567 4.075346,1.817159 7.572679,5.229777 7.95792,9.917819 0.579232,5.677154 1.406772,11.892171 -1.078231,17.225366 -3.198614,2.478539 1.317488,4.267316 1.751308,7.005447 1.351358,5.513513 1.163396,11.408557 0.421338,17.000479 -1.381707,6.183658 -7.3407,10.657499 -13.657656,10.308498 -9.773513,0.230219 -19.656669,0.603681 -29.376722,-0.39102 z M 62.969012,83.852554 c 1.599078,-2.204163 5.229755,-2.272554 1.767448,0.264502 -4.645711,3.259296 4.457671,0.08874 2.515789,-3.33822 0.82163,-7.206618 -7.571035,-5.625894 -12.201787,-5.733867 -3.172294,-1.292854 -4.663374,3.119585 -1.214271,0.905875 2.45313,0.378958 -5.420623,5.061335 -0.174038,2.191072 1.604658,-2.006006 6.486078,-2.948465 2.281775,-0.106681 -1.092266,1.368113 -3.786541,1.875714 -4.277112,3.535192 -0.06894,0.233213 -0.09436,0.489176 -0.06569,0.773473 0.01922,1.858997 -0.661516,4.417845 2.082547,3.552451 2.269296,-0.129567 4.705911,0.233206 6.87204,-0.199929 z m -3.75631,0.578044 c 1.367973,-2.798077 10.120571,-7.182508 4.471611,-2.043994 -1.192304,0.557366 -3.481249,3.457496 -4.471611,2.043994 z m -0.703804,-1.728073 c -0.142001,-2.298153 10.414573,-7.471417 5.020284,-2.833279 -1.484597,0.623005 -3.543726,3.941272 -5.020284,2.833279 z M 56.065709,81.61146 c 1.953977,-1.586425 6.208575,-5.835646 7.779012,-4.597972 -2.224064,1.631917 -5.117438,4.793649 -7.779012,4.597972 z M 53.019434,81.1357 c 2.133971,-1.516498 6.63871,-5.943257 8.126584,-4.579332 -2.397837,1.62151 -5.219423,4.860643 -8.126584,4.579332 z m 8.456509,-21.721522 c 1.642399,-2.128816 5.420559,-3.063248 2.136838,0.08943 -2.166603,1.137124 -3.79648,3.578583 -0.570086,1.268931 2.220462,-2.45715 1.798894,1.757514 2.711553,-1.900475 2.000804,-5.681355 -2.866505,-8.083332 -7.699891,-6.928851 -1.57088,0.03781 -8.152879,-0.558712 -5.717522,1.744923 4.882303,-2.677739 -0.964553,2.466821 -0.1973,2.478319 1.346454,-1.836198 9.192098,-5.160187 4.101059,-1.184044 -1.716855,0.532969 -4.57953,3.43489 -4.774569,5.333993 -0.07877,0.766944 0.277536,1.370337 1.320073,1.588103 1.888338,-0.133435 3.958447,0.260836 5.739473,-0.184138 z m -3.38151,0.703233 c 0.925475,-2.483079 9.978119,-7.490344 4.827369,-2.724892 -1.481423,0.671318 -3.279953,3.532112 -4.827369,2.724892 z m -1.512494,-1.339478 c 0.838154,-1.705751 6.40534,-6.597711 6.867252,-4.565289 -1.905618,1.622948 -4.356882,4.526275 -6.867252,4.565289 z m -3.2016,-0.667252 c 1.919833,-1.38309 6.727156,-6.331674 7.786255,-4.505813 -2.289472,1.667399 -4.823094,4.685195 -7.786255,4.505813 z M 27.893467,98.263068 c 0.808925,-2.672686 10.167343,-7.352406 4.469792,-2.368676 -1.162446,0.433712 -3.798459,3.840388 -4.469792,2.368676 z m 0.05626,-2.739216 c 1.457996,-1.235621 6.084524,-6.078703 6.384736,-4.064198 -1.430051,0.966954 -5.500969,5.974307 -6.384736,4.064198 z m 3.500102,-7.303609 c 0.651138,-2.695056 9.489041,-7.718172 4.363644,-2.519549 -1.131105,0.538274 -3.381305,3.599046 -4.363644,2.519549 z m 0,-2.696161 c 0.596324,-2.889898 9.731189,-7.212423 4.124833,-2.16689 -1.026138,0.358341 -3.527716,3.598516 -4.124833,2.16689 z m 0,-2.496966 c 0.989178,-2.108914 9.107365,-7.96761 4.574142,-2.752029 -1.181224,0.719013 -3.437501,3.739196 -4.574142,2.752029 z m 0,-2.476293 c 0.698329,-2.661522 9.479231,-7.750461 4.359079,-2.544039 -1.157839,0.576864 -3.292935,3.492043 -4.359079,2.544039 z m 0.02471,-2.631878 c 0.639184,-2.195585 8.820699,-7.481546 4.786575,-2.79734 -1.20435,0.320892 -4.051825,4.21733 -4.786575,2.79734 z m -0.02471,-2.593064 c 0.787174,-2.255442 9.21301,-7.537478 4.588048,-2.523935 -1.200519,0.532623 -3.731873,3.836335 -4.588048,2.523935 z m 0,-2.4943 c 0.661655,-2.575524 9.627608,-7.899253 4.445723,-2.566357 -1.202661,0.593433 -3.306526,3.43607 -4.445723,2.566357 z m 0.01303,-2.609997 c 0.635135,-1.978665 9.095144,-7.852263 4.798243,-2.79734 -1.211987,0.322321 -4.046987,4.223503 -4.798243,2.79734 z m -0.01305,-2.593064 c 0.787173,-2.255442 9.213009,-7.537477 4.588047,-2.523934 -1.200518,0.532622 -3.731872,3.836335 -4.588047,2.523934 z m 0,-2.446568 c 0.758589,-2.456245 9.308722,-7.393625 4.39831,-2.579039 -1.234394,0.663767 -3.135797,3.223266 -4.39831,2.579039 z m 0,-2.534076 c 2.29472,-4.131308 9.720061,-6.539266 2.975605,-1.31811 -0.666722,0.213679 -2.637821,2.748606 -2.975605,1.31811 z m 0,-2.494304 c 0.661655,-2.575522 9.627608,-7.899251 4.445723,-2.566356 -1.20266,0.593433 -3.306527,3.436072 -4.445723,2.566356 z m -0.388756,-2.287376 c 0.52866,-2.400754 10.155296,-7.811861 4.598099,-2.593127 -1.442093,0.779019 -2.854642,3.077012 -4.598099,2.593127 z m -2.48913,-0.89117 c 0.739042,-2.782088 10.753677,-7.216803 5.062803,-2.61878 -1.554505,0.672537 -3.373048,3.474845 -5.062803,2.61878 z m -0.702587,-1.7054 c 1.00387,-2.931907 10.296758,-8.034563 4.478069,-2.587205 -1.206069,0.390908 -3.786009,4.04323 -4.478069,2.587205 z m 0.01304,-2.737934 c 0.710619,-2.289076 9.73683,-7.932449 5.021027,-2.818379 -1.319525,0.599293 -4.129527,4.210381 -5.021027,2.818379 z m -0.01304,-2.583158 c 0.894587,-1.802759 9.255248,-7.859989 5.304585,-3.131284 -1.33777,0.55447 -4.269409,4.526505 -5.304585,3.131284 z m 0,-2.419898 c 0.482489,-3.130623 7.326442,-3.552561 2.050842,-0.641442 -0.433409,0.107378 -1.990487,1.920729 -2.050842,0.641442 z" /><path
       id="path1"
       style="fill:#ffffff;fill-opacity:1"
       d="m 69.80769,143.11291 c -1.752992,-2.99505 -9.079255,0.52984 -2.607804,-2.12715 2.37052,1.5 8.180241,-0.31219 8.186754,1.78597 -1.515981,-1.1437 -3.006905,0.15069 -5.57895,0.34118 z m 12.80196,-1.02731 c -3.00938,-0.25626 -4.408693,-0.0145 -0.25425,-1.16916 3.339203,-1.78189 2.181067,3.87217 0.25425,1.16916 z m 3.43453,0.39087 c -0.779846,-5.05172 3.243962,1.35487 0,0 z m -9.02495,-0.64768 c 2.508868,-2.15668 0.290745,1.97359 0,0 z m 12.91245,0.0913 c -3.469289,-3.1752 2.448501,-1.74796 1.35152,0.0436 l -0.926328,0.12722 z m -26.6928,-1.58741 c -5.136245,-4.33042 5.578436,2.35586 0,0 z m -4.27124,-0.56887 c -6.085839,-1.43032 1.08916,-2.1634 1.857625,0.67252 -0.632204,0.54804 -1.45247,-0.29635 -1.857625,-0.67252 z m -2.53735,-0.0847 c 3.51527,-0.58075 -1.056755,1.13187 0,0 z m 39.33894,-0.18496 c -6.079185,-1.84092 9.85654,-4.79033 0.996575,-1.82315 -1.309895,-0.21496 0.122543,3.93257 -0.996575,1.82315 z M 53.7462,138.77047 c -1.224423,-1.38715 -8.852484,-2.52992 -6.72697,-2.75498 1.38958,-0.28203 -10.745362,-5.63598 -3.17307,-2.94156 2.57452,2.72267 10.898491,3.08532 10.984728,6.07212 l -0.530023,-0.0184 -0.554665,-0.35721 z m 47.35797,-2.33566 c 1.72933,-2.00875 1.90531,2.09853 0,0 z m 3.55486,-1.46086 c 4.99956,-4.15364 2.00598,1.10301 0,0 z m 4.52366,-1.94678 c 4.11458,-6.72453 0.62548,2.75211 0,0 z m -70.52884,-1.99605 c -1.629604,-3.07741 3.659641,3.08703 0,0 z m 74.42307,0.19065 c 1.67644,-2.89022 7.89973,-8.04202 9.4883,-7.58726 -2.56462,2.58709 -6.31594,7.94393 -9.4883,7.58726 z m -77.55494,-1.39966 c -3.386273,-4.11564 4.672818,1.66038 0.713296,0.58641 z m -2.3489,-2.04394 c -2.17135,-2.8383 -7.896801,-5.92744 -7.998381,-8.4369 2.09019,2.05117 8.863622,7.60598 7.998381,8.4369 z m 90.98051,-7.27544 c 1.17203,-1.38194 5.87581,-6.85819 3.19977,-1.92297 -0.94084,0.50818 -4.28142,5.9046 -3.19977,1.92297 z M 23.33123,117.78995 c -2.449827,-3.96249 -5.809361,-6.38254 -7.23371,-10.47699 -1.992445,-3.82009 3.679723,4.49364 4.904513,5.88427 1.419427,0.0485 4.781526,8.47333 2.329197,4.59272 z m 105.32262,-2.73794 c 1.88701,-4.17449 1.88063,1.56189 0,0 z m 4.60047,-6.68741 c 1.74468,-1.8328 3.52218,-13.116279 3.29203,-5.4245 -1.08712,1.77118 -4.86547,11.15157 -4.75852,8.44818 0.42772,-1.03661 0.93374,-2.038 1.46649,-3.02368 z m 1.1952,1.31304 c 2.73712,-2.98288 -0.99145,3.77234 -3e-5,0 z m 1.72267,-3.48632 c 2.65643,-7.637374 1.69988,1.1573 0,0 z M 13.61113,102.46338 c -0.605062,-1.73231 -3.9028613,-8.558081 -0.784431,-3.373775 0.840801,1.123545 3.094262,8.320955 0.784431,3.373775 z m 123.74045,-3.67933 c 0.35025,-2.465434 2.21363,-6.532644 1.01657,-1.733649 0.34066,0.701895 -0.74839,4.277389 -1.01657,1.733649 z M 10.9174,96.25487 C 9.9935576,93.590576 8.4906223,85.824332 10.711294,92.584151 10.558475,93.251725 12.19624,96.230205 10.9174,96.25487 Z m 127.68837,-3.87366 c -2.47676,-2.217585 3.20975,0.06213 0,0 z m 1.67763,-3.08157 c 0.59191,-3.524143 0.25521,3.321158 0,0 z m -0.0911,-2.431914 c 1.10907,-1.782361 2.28074,1.898129 0,0 z M 8.39568,86.235411 c -0.2354029,-8.425724 2.240381,2.510404 0,0 z m 132.66269,-1.762873 c 0.82097,-4.554014 -0.45888,-12.581036 1.10833,-15.04373 0.5596,5.39402 0.30452,11.000673 -1.30103,16.257456 z M 8.00861,81.56615 C 7.3082958,79.029709 7.1414348,72.673489 8.1543502,71.905226 8.1042326,73.698918 9.1164032,82.74806 8.00861,81.56615 Z M 7.74305,69.017512 C 7.9373382,66.048731 9.5353473,58.60855 8.9848386,65.748163 9.1074624,66.756382 7.7153142,73.218372 7.74305,69.017512 Z m 132.84062,-1.967974 c -1.9085,-4.176915 6.01371,1.341802 0,0 z m -0.43882,-3.284945 c -0.93079,-3.847869 0.32014,-5.200556 0.90626,-0.947266 1.26485,1.30907 -0.0706,3.261782 -0.90626,0.947266 z M 9.23075,59.533076 c 1.786161,-4.7291 0.1658703,4.471104 0,0 z m 1.51358,-1.481711 c -1.3326191,-4.705928 1.779624,2.308072 0,0 z m 128.49319,-0.0026 c -0.46877,-3.543807 1.59336,2.821861 0,0 z m -1.60258,-5.085754 c -1.08232,-2.342144 -3.88211,-9.167921 -0.48923,-3.44509 1.21849,1.646088 3.06044,9.426822 0.48923,3.44509 z M 10.83872,54.085605 c 0.787461,-4.834741 1.138728,4.47877 0,0 z m 0.69974,-2.946673 c 1.208546,-3.966983 1.473249,2.017225 0,0 z m 1.44423,-2.105566 c 0.766579,-6.04409 1.841328,-0.721365 0.338947,0.857433 z M 11.9698,45.69955 c 1.179034,-4.081832 3.178916,-0.333843 0,0 z m 122.45328,-0.0313 c -1.15538,-2.533407 -8.05165,-12.878501 -2.27139,-5.68908 0.44141,0.802952 3.69216,6.22901 2.27139,5.68908 z M 15,43.229445 c 1.291707,-2.30096 5.007693,-10.525281 6.569907,-8.825164 -2.525355,2.060003 -4.9199,8.030225 -6.569907,8.825164 z m 0,-4.124385 c 1.557086,-2.35167 1.356424,2.2711 0,0 z m 111.92308,-4.495832 c -2.30667,-2.390153 -7.69955,-10.611193 -2.52893,-4.884723 1.5869,0.877879 5.02501,6.152822 3.67891,6.248609 l -0.55468,-0.591079 z m -105,-2.311433 c 2.190325,-3.39782 5.980164,-5.9497 7.93269,-8.882372 2.921236,-0.970242 5.844419,-7.410506 9.317411,-3.571063 -4.062629,-1.485379 -9.628425,6.847518 -13.657761,9.692819 -1.226278,1.188716 -1.335783,5.460126 -3.59234,2.760616 z M 118.98089,25.6327 c -4.92894,-5.81751 6.68715,5.022377 0,0 z m -5.9795,-4.579589 c -2.24003,-0.912052 -7.85003,-5.189667 -4.60691,-3.528027 2.49257,0.620532 10.90636,5.911801 7.07071,5.100068 -0.84175,-0.491241 -1.66038,-1.020798 -2.4638,-1.572041 z M 41.97116,16.539527 c 2.598196,-0.413334 1.615797,0.866993 0,0 z m 62.52224,-0.140795 c -1.79461,-3.699303 0.12544,-1.068313 1.4746,-0.27063 2.41326,-2.901892 0.70403,2.936593 -1.4746,0.27063 z M 46.66045,15.231417 c 0.634609,-4.937106 5.001942,0.575503 -0.34422,0.497377 L 46.185597,15.611179 46.66045,15.231414 Z M 101.25,14.775062 c -1.951872,-1.663577 -10.982719,-3.759467 -3.96008,-2.851193 1.018985,-1.176485 5.05792,4.342754 4.46045,-0.709849 0.79379,0.750134 2.74613,6.528712 -0.50037,3.561042 z M 51.95883,13.260643 c 1.663787,-3.2780282 6.744855,-2.634834 8.446219,-4.8208816 2.161961,3.5400046 -5.429693,2.5366616 -7.328119,4.8208816 0.235618,1.89098 -2.402916,0.217917 -1.1181,0 z M 91.15385,10.86574 c 3.206165,-4.0195943 3.731591,1.778801 0,0 z m -5.19231,-0.36626 c 2.008752,-2.0616822 7.141286,1.188729 1.411657,0.436421 L 86.639424,10.828459 Z M 82.78846,9.540923 C 79.48174,7.7753967 70.15185,9.7638045 70.05449,7.943967 c 1.201872,-2.1224329 6.457434,0.466745 7.2532,-0.356411 1.486983,-0.9767267 5.467903,1.5615976 8.326411,0.9366895 1.058787,-2.6017445 0.124018,4.5331625 -2.845641,1.0166775 z m -20.04807,-0.0053 c 2.598196,-0.4133341 1.615797,0.866993 0,0 z M 65.97731,8.89183 c -1.138286,-3.5041489 6.070629,1.589675 0,0 z" /><path
       d="m 95.75463,101.0192 h 24.58063 c 2.76532,0 4.99294,-2.227625 4.99294,-4.99294 V 65.300474 c 0,-2.342841 -0.92177,-4.570461 -2.57328,-6.260379 -1.65152,-1.689918 -3.91755,-2.573285 -6.26038,-2.573285 H 95.75463 c -2.765321,0 -4.99294,2.227619 -4.99294,4.99294 v 34.56651 c 0,2.765315 2.227619,4.99294 4.99294,4.99294 z M 116.53295,89.49703 H 99.633756 c -0.652914,0 -1.152207,-0.499295 -1.152207,-1.152217 0,-0.652923 0.499293,-1.152218 1.152207,-1.152218 h 16.899194 c 0.65291,0 1.15221,0.499295 1.15221,1.152218 0,0.652922 -0.4993,1.152217 -1.15221,1.152217 z m 4.57045,-28.805424 c 0.96018,0.96018 1.5747,2.150805 1.80515,3.45665 h -2.57329 c -1.49789,0 -2.68851,-1.190623 -2.68851,-2.688506 v -2.573284 c 1.30585,0.230443 2.49648,0.844959 3.45665,1.80514 z m -21.546449,14.97882 h 16.899179 c 0.65293,0 1.15222,0.499294 1.15222,1.152217 0,0.652923 -0.49929,1.152217 -1.15222,1.152217 H 99.556951 c -0.652925,0 -1.152218,-0.499294 -1.152218,-1.152217 0,-0.652923 0.499293,-1.152217 1.152218,-1.152217 z m 0,5.761085 h 16.899179 c 0.65293,0 1.15222,0.499294 1.15222,1.152217 0,0.652923 -0.49929,1.152217 -1.15222,1.152217 H 99.556951 c -0.652925,0 -1.152218,-0.499294 -1.152218,-1.152217 0,-0.652923 0.499293,-1.152217 1.152218,-1.152217 z"
       id="path1-6"
       style="fill:#f9f9f9;stroke-width:0.384073" /></g></svg>
